# xmcd
#
# Track frame offsets:
#	150
#	21181
#	49580
#	81364
#	114065
#	139964
#	160403
#	198253
#
# Disc length: 3046 seconds
#
# Revision: 1
# Processed by: cddbd v1.5.1PL0 Copyright (c) Steve Scherf et al.
# Submitted via: audiograbber 1.80
#
DISCID=620be408
DTITLE=Rory Gallagher - The Story So Far
DYEAR=1900
DGENRE=
TTITLE0=Laundromat
TTITLE1=Cradle Rock
TTITLE2=Walk on Hot Coals
TTITLE3=Who's That Coming?
TTITLE4=In Your Town
TTITLE5=Hands Off
TTITLE6=Too Much Alcohol
TTITLE7=Bullfrog Blues
EXTD=
EXTT0=
EXTT1=
EXTT2=
EXTT3=
EXTT4=
EXTT5=
EXTT6=
EXTT7=
PLAYORDER=
